<?xml version="1.0" encoding="UTF-8"?>
<svg xmlns="http://www.w3.org/2000/svg" xmlns:xlink="http://www.w3.org/1999/xlink" viewBox="0 0 60 60" width="60px" height="60px">
<g id="surface55508863">
<path style=" stroke:none;fill-rule:nonzero;fill:rgb(18.431373%,61.56863%,83.529413%);fill-opacity:1;" d="M 30 6 C 16.746094 6 6 16.746094 6 30 C 6 42.03125 14.863281 51.96875 26.410156 53.703125 L 26.410156 36.359375 L 20.472656 36.359375 L 20.472656 30.050781 L 26.410156 30.050781 L 26.410156 25.855469 C 26.410156 18.902344 29.796875 15.855469 35.574219 15.855469 C 38.339844 15.855469 39.804688 16.058594 40.496094 16.152344 L 40.496094 21.65625 L 36.554688 21.65625 C 34.105469 21.65625 33.246094 23.984375 33.246094 26.605469 L 33.246094 30.050781 L 40.433594 30.050781 L 39.460938 36.359375 L 33.246094 36.359375 L 33.246094 53.753906 C 44.960938 52.164062 54 42.148438 54 30 C 54 16.746094 43.253906 6 30 6 Z M 30 6 "/>
</g>
</svg>
